<?xml version="1.0" encoding="utf-8"?>
<!-- Generator: Adobe Illustrator 16.0.0, SVG Export Plug-In . SVG Version: 6.00 Build 0)  -->
<!DOCTYPE svg PUBLIC "-//W3C//DTD SVG 1.1//EN" "http://www.w3.org/Graphics/SVG/1.1/DTD/svg11.dtd">
<svg version="1.1" id="Calque_1" xmlns="http://www.w3.org/2000/svg" xmlns:xlink="http://www.w3.org/1999/xlink" x="0px" y="0px"
	 width="582.362px" height="107.518px" viewBox="0 0 582.362 107.518" enable-background="new 0 0 582.362 107.518"
	 xml:space="preserve">
<rect x="286.607" y="23.151" transform="matrix(0.7071 -0.7071 0.7071 0.7071 65.4977 214.435)" fill="none" stroke="#000000" stroke-width="4" stroke-miterlimit="10" width="10" height="10"/>
<rect x="280.836" y="67.358" transform="matrix(0.7071 -0.7071 0.7071 0.7071 30.1688 229.0894)" fill="none" stroke="#000000" stroke-width="4" stroke-miterlimit="10" width="21.543" height="21.543"/>
<g>
	<defs>
		<rect id="SVGID_1_" width="582.362" height="107.518"/>
	</defs>
	<clipPath id="SVGID_2_">
		<use xlink:href="#SVGID_1_"  overflow="visible"/>
	</clipPath>
	<path clip-path="url(#SVGID_2_)" d="M581.404,56.901c-5.038,0.219-10.076,0.315-15.114,0.477
		c-5.039,0.115-10.077,0.22-15.115,0.288l-15.113,0.17L520.946,57.9l-0.824,0.003l-0.589-0.59l-5.893-5.885h2.833l-16.561,16.574
		l-1.422,1.423l-1.424-1.423l-10.538-10.529h2.854l-4.947,4.951v-2.858l4.802,4.798h-2.863l9.567-9.574v2.871l-9.904-9.896h2.88
		l-9.566,9.575l-0.598,0.597l-0.847,0.001l-107.419,0.045l1.475-0.611L356.446,72.9l-1.48,1.48l-1.481-1.48L308.3,27.753
		L285.708,5.18l-0.606-0.494l-0.094-0.075l-0.048-0.009l-0.087-0.023c-0.056-0.019-0.106-0.045-0.155-0.079
		c-0.134-0.058-0.355-0.094-0.522-0.164c-0.188-0.03-0.38-0.027-0.569-0.064c-0.78-0.008-1.501,0.302-2.071,0.865l-5.643,5.648
		l-11.287,11.296v-3.036l51.203,51.162h-3.077l14.494-14.506v3.089l-14.29-14.278h3.101l-8.484,8.491v-3.108l27.6,27.579h-3.13
		l28.965-28.989v3.154l-21.122-21.105h3.171l-6.984,6.992l0.01-3.167l13.945,14.119l1.573,1.593l-1.585,1.585l-28.227,28.251
		l-14.113,14.125l-7.057,7.062l-3.529,3.532l-0.44,0.441l-0.221,0.221l-0.055,0.055l-0.228,0.208l-0.121,0.1
		c-0.358,0.271-0.512,0.486-1.244,0.888c-0.305,0.168-0.631,0.351-0.934,0.47l-0.87,0.267c-0.577,0.195-1.196,0.18-1.796,0.244
		c-1.201-0.061-2.433-0.28-3.482-0.912c-0.558-0.257-1.007-0.671-1.474-1.056c-0.268-0.221-0.344-0.325-0.511-0.483l-0.441-0.441
		l-3.528-3.532l-7.057-7.062l-14.114-14.125l-28.227-28.251l-1.584-1.585l1.574-1.593l13.944-14.119l0.011,3.167l-6.986-6.992h3.172
		l-21.123,21.105v-3.154l28.966,28.989h-3.131l27.601-27.579v3.108l-8.485-8.491h3.101l-14.29,14.278v-3.089l14.494,14.506h-3.078
		l51.203-51.162v3.036l-11.287-11.296l-5.644-5.648c-1.12-1.162-3.016-1.15-4.151,0.043l-22.592,22.574L228.878,72.9l-1.483,1.48
		l-1.479-1.48l-15.517-15.529l1.474,0.611l-107.419-0.045l-0.846-0.001l-0.597-0.597l-9.567-9.575h2.879l-9.903,9.896V54.79
		l9.566,9.574h-2.863l4.802-4.798v2.858l-4.948-4.951h2.856L85.295,68.002l-1.425,1.423l-1.422-1.423l-16.56-16.574h2.832
		l-5.891,5.885l-0.59,0.59L61.415,57.9l-15.114-0.064l-15.115-0.17c-5.038-0.068-10.076-0.173-15.114-0.288
		c-5.038-0.161-10.076-0.258-15.115-0.477c-0.552-0.024-0.98-0.491-0.956-1.043c0.023-0.522,0.445-0.934,0.956-0.957
		c5.039-0.22,10.077-0.316,15.115-0.478c5.038-0.115,10.076-0.22,15.114-0.288l15.115-0.17l15.114-0.064l-1.413,0.586l5.885-5.892
		l1.416-1.417l1.418,1.417l16.574,16.56h-2.847l10.529-10.538l1.427-1.427l1.429,1.427l4.951,4.948l1.43,1.428l-1.43,1.431
		l-4.798,4.802l-1.43,1.433l-1.433-1.433l-9.574-9.565l-1.436-1.436l1.436-1.436l9.895-9.904l1.438-1.439l1.441,1.439l9.574,9.567
		l-1.443-0.598l107.419-0.044h0.863l0.612,0.611l15.529,15.517h-2.961l45.147-45.184l22.573-22.592
		c1.262-1.298,3.185-2.172,5.071-2.161c0.472,0.019,0.947,0.071,1.416,0.129c0.46,0.126,0.911,0.248,1.371,0.417
		c0.477,0.231,1.01,0.522,1.402,0.789l0.387,0.315l0.193,0.158l0.097,0.079l0.048,0.039l0.206,0.187l5.648,5.643l11.296,11.287
		l1.518,1.517l-1.518,1.519L269.61,73.284l-1.538,1.539l-1.54-1.539L252.026,58.79l-1.545-1.543l1.545-1.546l14.279-14.291
		l1.549-1.55l1.552,1.55l8.492,8.485l1.554,1.553l-1.554,1.556l-27.578,27.6l-1.564,1.566l-1.567-1.566L218.2,51.639l-1.577-1.576
		l1.577-1.578l21.105-21.122l1.584-1.586l1.588,1.586l6.991,6.985l1.578,1.577l-1.568,1.59l-13.932,14.131l-0.011-3.179
		l28.25,28.229l14.125,14.112l7.063,7.058l3.531,3.527l0.442,0.441c0.133,0.128,0.328,0.345,0.395,0.372
		c0.188,0.125,0.331,0.317,0.551,0.387c0.375,0.262,0.846,0.289,1.289,0.351c0.22-0.063,0.459-0.001,0.669-0.103
		c0.105-0.035,0.214-0.064,0.324-0.089c0.083-0.035,0.113-0.074,0.181-0.091c0.044,0.076,0.482-0.316,0.779-0.553l0.12-0.1
		c0.164-0.146-0.188,0.172-0.142,0.129l0.027-0.027l0.056-0.056l0.221-0.221l0.441-0.441l3.531-3.527l7.063-7.058l14.125-14.112
		l28.25-28.229l-0.01,3.179l-13.934-14.131l-1.567-1.59l1.579-1.577l6.99-6.985l1.587-1.586l1.585,1.586l21.104,21.122l1.578,1.578
		l-1.578,1.576l-28.988,28.964l-1.566,1.566l-1.564-1.566l-27.578-27.6l-1.555-1.556l1.555-1.553l8.491-8.485l1.552-1.55l1.55,1.55
		l14.278,14.291l1.545,1.546l-1.545,1.543L315.83,73.284l-1.541,1.539l-1.537-1.539l-51.161-51.203l-1.518-1.519l1.518-1.517
		l11.296-11.287l5.648-5.643c1.309-1.327,3.225-2.15,5.119-2.113c0.471,0.039,0.949,0.067,1.413,0.154
		c0.463,0.136,0.902,0.234,1.376,0.44c0.246,0.121,0.49,0.25,0.728,0.386l0.355,0.209l0.173,0.108l0.101,0.08l0.386,0.316
		l0.193,0.158l0.097,0.079l0.205,0.187l0.044,0.044l22.574,22.592l45.147,45.184h-2.962l15.529-15.517l0.611-0.611h0.863
		l107.419,0.044l-1.443,0.598l9.574-9.567l1.441-1.439l1.438,1.439l9.896,9.904l1.436,1.436l-1.436,1.436l-9.574,9.565l-1.434,1.433
		l-1.431-1.433l-4.798-4.802l-1.43-1.431l1.43-1.428l4.952-4.948l1.429-1.427l1.426,1.427l10.529,10.538h-2.846l16.573-16.56
		l1.418-1.417l1.415,1.417l5.887,5.892l-1.414-0.586l15.115,0.064l15.113,0.17c5.038,0.068,10.076,0.173,15.115,0.288
		c5.038,0.161,10.076,0.258,15.114,0.478c0.552,0.023,0.98,0.49,0.957,1.043C582.338,56.465,581.916,56.876,581.404,56.901"/>
</g>
</svg>
